<svg version="1.1" id="Layer_1" xmlns="http://www.w3.org/2000/svg" xmlns:xlink="http://www.w3.org/1999/xlink" x="0px" y="0px"
	 viewBox="0 0 32 32" width="32" height="32" style="enable-background:new 0 0 32 32;" xml:space="preserve">
<style type="text/css">
	.st0{fill-rule:evenodd;clip-rule:evenodd;fill:#FFFFFF;}
	.st1{fill-rule:evenodd;clip-rule:evenodd;fill:#384D5D;}
</style>
<rect class="st0" width="32" height="32"/>
<path class="st1" d="M16,7c-1.7,0-3,1.3-3,3c0,1.7,1.3,3,3,3c1.7,0,3-1.3,3-3C19,8.3,17.7,7,16,7z M11,10c0-2.8,2.2-5,5-5s5,2.2,5,5
	c0,2.8-2.2,5-5,5S11,12.8,11,10z"/>
<path class="st1" d="M5,23.3c0-3.5,2.8-6.3,6.3-6.3h9.3c3.5,0,6.3,2.8,6.3,6.3c0,2-1.6,3.7-3.7,3.7H8.7C6.6,27,5,25.4,5,23.3z
	 M11.3,19C8.9,19,7,20.9,7,23.3C7,24.3,7.7,25,8.7,25h14.7c0.9,0,1.7-0.7,1.7-1.7c0-2.4-1.9-4.3-4.3-4.3H11.3z"/>
</svg>