<svg version="1.1" id="Layer_1" xmlns="http://www.w3.org/2000/svg" xmlns:xlink="http://www.w3.org/1999/xlink" x="0px" y="0px"
	 viewBox="0 0 32 32" width="32" height="32" style="enable-background:new 0 0 32 32;" xml:space="preserve">
<style type="text/css">
	.st0{fill-rule:evenodd;clip-rule:evenodd;fill:#FFFFFF;}
	.st1{fill-rule:evenodd;clip-rule:evenodd;fill:#384D5D;}
</style>
<rect class="st0" width="32" height="32"/>
<path class="st1" d="M7.3,12.5C9,11.7,11.8,11,16.2,11c4.5,0,7.1,0.7,8.7,1.4c0.8,0.4,1.3,0.8,1.7,1.1c0.2,0.2,0.3,0.3,0.4,0.4
	c0,0.1,0.1,0.1,0.1,0.2c0,0,0,0,0,0.1l0,0l0,0l0,0l0,0l0,0l0,0l3,6.6c0.5,1.2,0.3,2.7-1.1,3.5c-2,1.1-6.1,2.6-13,2.6
	C9.3,27,5,25.4,2.9,24.3c-1.4-0.7-1.7-2.3-1.1-3.5l3-6.6l0-0.1l0,0l0,0l0,0c0,0,0,0,0-0.1C4.9,14,5,14,5,13.9
	c0.1-0.1,0.2-0.2,0.4-0.4C5.8,13.2,6.4,12.8,7.3,12.5z M7.5,14.6c0.2-0.1,0.4-0.2,0.6-0.3C9.5,13.7,12,13,16.2,13
	c4.3,0,6.6,0.7,7.9,1.3c0.2,0.1,0.4,0.2,0.5,0.3c-0.4,0.2-0.8,0.4-1.3,0.6c-1.6,0.6-4,1.3-7.1,1.3c-3.1,0-5.6-0.7-7.4-1.3
	C8.3,15,7.9,14.8,7.5,14.6z M6.1,16.1l-2.5,5.5c-0.2,0.4,0,0.8,0.2,0.9C5.6,23.5,9.6,25,16.2,25c6.6,0,10.3-1.5,12-2.4
	c0.2-0.1,0.4-0.4,0.2-0.9l-2.5-5.6c-0.5,0.3-1.1,0.6-1.8,0.9c-1.8,0.7-4.5,1.4-7.8,1.4c-3.4,0-6.1-0.7-8-1.4
	C7.3,16.7,6.6,16.4,6.1,16.1z"/>
</svg>
